<mxfile host="app.diagrams.net" modified="2023-05-07T05:08:00.759Z" agent="Mozilla/5.0 (Windows NT 10.0; Win64; x64) AppleWebKit/537.36 (KHTML, like Gecko) Chrome/112.0.0.0 Safari/537.36" etag="EY6gZLUgQ1YpxGCBgPGh" version="21.2.9" type="device">
  <diagram id="C5RBs43oDa-KdzZeNtuy" name="Page-1">
    <mxGraphModel dx="1434" dy="796" grid="1" gridSize="10" guides="1" tooltips="1" connect="1" arrows="1" fold="1" page="1" pageScale="1" pageWidth="827" pageHeight="1169" math="0" shadow="0">
      <root>
        <mxCell id="WIyWlLk6GJQsqaUBKTNV-0" />
        <mxCell id="WIyWlLk6GJQsqaUBKTNV-1" parent="WIyWlLk6GJQsqaUBKTNV-0" />
        <mxCell id="LTMEAv8-DifmFRP5Q2J6-3" value="" style="edgeStyle=orthogonalEdgeStyle;rounded=0;orthogonalLoop=1;jettySize=auto;html=1;exitX=0.5;exitY=1;exitDx=0;exitDy=0;" edge="1" parent="WIyWlLk6GJQsqaUBKTNV-1" source="LTMEAv8-DifmFRP5Q2J6-16" target="LTMEAv8-DifmFRP5Q2J6-2">
          <mxGeometry relative="1" as="geometry">
            <mxPoint x="200" y="160" as="sourcePoint" />
          </mxGeometry>
        </mxCell>
        <mxCell id="LTMEAv8-DifmFRP5Q2J6-1" value="arr - массив символов строки&lt;br&gt;len - длина массива arr&lt;br&gt;n = 0 - счётчик" style="text;html=1;strokeColor=none;fillColor=none;align=center;verticalAlign=middle;whiteSpace=wrap;rounded=0;" vertex="1" parent="WIyWlLk6GJQsqaUBKTNV-1">
          <mxGeometry x="115" y="80" width="170" height="40" as="geometry" />
        </mxCell>
        <mxCell id="LTMEAv8-DifmFRP5Q2J6-5" value="" style="edgeStyle=orthogonalEdgeStyle;rounded=0;orthogonalLoop=1;jettySize=auto;html=1;" edge="1" parent="WIyWlLk6GJQsqaUBKTNV-1" source="LTMEAv8-DifmFRP5Q2J6-2" target="LTMEAv8-DifmFRP5Q2J6-4">
          <mxGeometry relative="1" as="geometry" />
        </mxCell>
        <mxCell id="LTMEAv8-DifmFRP5Q2J6-13" value="" style="edgeStyle=orthogonalEdgeStyle;rounded=0;orthogonalLoop=1;jettySize=auto;html=1;" edge="1" parent="WIyWlLk6GJQsqaUBKTNV-1" source="LTMEAv8-DifmFRP5Q2J6-2" target="LTMEAv8-DifmFRP5Q2J6-12">
          <mxGeometry relative="1" as="geometry" />
        </mxCell>
        <mxCell id="LTMEAv8-DifmFRP5Q2J6-2" value="от i до len-2&lt;br&gt;с шагом 1" style="shape=hexagon;perimeter=hexagonPerimeter2;whiteSpace=wrap;html=1;fixedSize=1;rounded=1;" vertex="1" parent="WIyWlLk6GJQsqaUBKTNV-1">
          <mxGeometry x="140" y="230" width="120" height="80" as="geometry" />
        </mxCell>
        <mxCell id="LTMEAv8-DifmFRP5Q2J6-7" value="" style="edgeStyle=orthogonalEdgeStyle;rounded=0;orthogonalLoop=1;jettySize=auto;html=1;" edge="1" parent="WIyWlLk6GJQsqaUBKTNV-1" source="LTMEAv8-DifmFRP5Q2J6-4" target="LTMEAv8-DifmFRP5Q2J6-6">
          <mxGeometry relative="1" as="geometry" />
        </mxCell>
        <mxCell id="LTMEAv8-DifmFRP5Q2J6-4" value="если i-ый элемент массива arr &#39;a&#39;,&lt;br&gt;&amp;nbsp;(i+1)-ый элемент массива arr &#39;b&#39;,&lt;br&gt;&amp;nbsp;(i+2)-ый элемент массива arr &#39;a&#39;" style="rhombus;whiteSpace=wrap;html=1;rounded=1;" vertex="1" parent="WIyWlLk6GJQsqaUBKTNV-1">
          <mxGeometry x="70" y="350" width="260" height="110" as="geometry" />
        </mxCell>
        <mxCell id="LTMEAv8-DifmFRP5Q2J6-6" value="n=n+1" style="whiteSpace=wrap;html=1;rounded=1;" vertex="1" parent="WIyWlLk6GJQsqaUBKTNV-1">
          <mxGeometry x="140" y="500" width="120" height="60" as="geometry" />
        </mxCell>
        <mxCell id="LTMEAv8-DifmFRP5Q2J6-8" value="" style="endArrow=classic;html=1;rounded=0;entryX=0;entryY=0.5;entryDx=0;entryDy=0;exitX=0;exitY=0.5;exitDx=0;exitDy=0;" edge="1" parent="WIyWlLk6GJQsqaUBKTNV-1" source="LTMEAv8-DifmFRP5Q2J6-6" target="LTMEAv8-DifmFRP5Q2J6-2">
          <mxGeometry width="50" height="50" relative="1" as="geometry">
            <mxPoint x="50" y="600" as="sourcePoint" />
            <mxPoint x="80" y="310" as="targetPoint" />
            <Array as="points">
              <mxPoint x="50" y="530" />
              <mxPoint x="50" y="270" />
            </Array>
          </mxGeometry>
        </mxCell>
        <mxCell id="LTMEAv8-DifmFRP5Q2J6-9" value="" style="endArrow=classic;html=1;rounded=0;exitX=0;exitY=0.5;exitDx=0;exitDy=0;" edge="1" parent="WIyWlLk6GJQsqaUBKTNV-1" source="LTMEAv8-DifmFRP5Q2J6-4">
          <mxGeometry width="50" height="50" relative="1" as="geometry">
            <mxPoint x="70" y="400" as="sourcePoint" />
            <mxPoint x="50" y="405" as="targetPoint" />
          </mxGeometry>
        </mxCell>
        <mxCell id="LTMEAv8-DifmFRP5Q2J6-10" value="ДА" style="text;html=1;strokeColor=none;fillColor=none;align=center;verticalAlign=middle;whiteSpace=wrap;rounded=0;" vertex="1" parent="WIyWlLk6GJQsqaUBKTNV-1">
          <mxGeometry x="210" y="460" width="60" height="30" as="geometry" />
        </mxCell>
        <mxCell id="LTMEAv8-DifmFRP5Q2J6-11" value="НЕТ&lt;br&gt;" style="text;html=1;strokeColor=none;fillColor=none;align=center;verticalAlign=middle;whiteSpace=wrap;rounded=0;" vertex="1" parent="WIyWlLk6GJQsqaUBKTNV-1">
          <mxGeometry x="55" y="360" width="60" height="30" as="geometry" />
        </mxCell>
        <mxCell id="LTMEAv8-DifmFRP5Q2J6-15" value="" style="edgeStyle=orthogonalEdgeStyle;rounded=0;orthogonalLoop=1;jettySize=auto;html=1;" edge="1" parent="WIyWlLk6GJQsqaUBKTNV-1" source="LTMEAv8-DifmFRP5Q2J6-12" target="LTMEAv8-DifmFRP5Q2J6-14">
          <mxGeometry relative="1" as="geometry" />
        </mxCell>
        <mxCell id="LTMEAv8-DifmFRP5Q2J6-12" value="выводим n" style="whiteSpace=wrap;html=1;rounded=1;" vertex="1" parent="WIyWlLk6GJQsqaUBKTNV-1">
          <mxGeometry x="310" y="240" width="120" height="60" as="geometry" />
        </mxCell>
        <mxCell id="LTMEAv8-DifmFRP5Q2J6-14" value="Конец" style="ellipse;whiteSpace=wrap;html=1;rounded=1;" vertex="1" parent="WIyWlLk6GJQsqaUBKTNV-1">
          <mxGeometry x="330" y="320" width="80" height="80" as="geometry" />
        </mxCell>
        <mxCell id="LTMEAv8-DifmFRP5Q2J6-16" value="Начало" style="ellipse;whiteSpace=wrap;html=1;aspect=fixed;" vertex="1" parent="WIyWlLk6GJQsqaUBKTNV-1">
          <mxGeometry x="160" y="130" width="80" height="80" as="geometry" />
        </mxCell>
      </root>
    </mxGraphModel>
  </diagram>
</mxfile>
